<svg width="35" height="36" viewBox="0 0 35 36" fill="none" xmlns="http://www.w3.org/2000/svg">
<path d="M14.9827 5.7178C15.1349 5.96145 15.2377 6.23271 15.2852 6.51609C15.3326 6.79948 15.3238 7.08943 15.2592 7.3694C15.1946 7.64937 15.0755 7.91387 14.9086 8.1478C14.7418 8.38174 14.5305 8.58052 14.2869 8.7328C11.6239 10.3915 9.50842 12.7977 8.20438 15.6511C9.52128 15.541 10.8408 15.8309 11.9902 16.483C13.1396 17.1351 14.0654 18.1189 14.6465 19.3058C15.2277 20.4926 15.437 21.8273 15.2472 23.1351C15.0573 24.4429 14.4772 25.6629 13.5826 26.6356C12.688 27.6082 11.5206 28.2882 10.2332 28.5866C8.94587 28.8849 7.59841 28.7877 6.36717 28.3077C5.13593 27.8277 4.07825 26.9872 3.33251 25.8962C2.58676 24.8053 2.18769 23.5146 2.1875 22.1931V22.134C2.18988 21.9646 2.19718 21.7954 2.20938 21.6264C2.22907 21.2982 2.26845 20.8388 2.34503 20.2743C2.49819 19.1518 2.79794 17.605 3.404 15.8677C4.61175 12.3889 7.05789 8.08954 11.9677 5.02203C12.2113 4.86974 12.4826 4.76694 12.766 4.71949C13.0493 4.67204 13.3393 4.68088 13.6193 4.74548C13.8992 4.81009 14.1637 4.92921 14.3977 5.09604C14.6316 5.26287 14.8304 5.47414 14.9827 5.7178ZM30.2983 5.7178C30.4506 5.96145 30.5534 6.23271 30.6009 6.51609C30.6483 6.79948 30.6395 7.08943 30.5749 7.3694C30.5103 7.64937 30.3912 7.91387 30.2243 8.1478C30.0575 8.38174 29.8462 8.58052 29.6026 8.7328C26.9396 10.3915 24.8241 12.7977 23.5201 15.6511C24.837 15.541 26.1564 15.8309 27.3059 16.483C28.4553 17.1351 29.3811 18.1189 29.9622 19.3058C30.5433 20.4926 30.7527 21.8273 30.5628 23.1351C30.373 24.4429 29.7928 25.6629 28.8982 26.6356C28.0037 27.6082 26.8363 28.2882 25.5489 28.5866C24.2616 28.8849 22.9141 28.7877 21.6829 28.3077C20.4516 27.8277 19.3939 26.9872 18.6482 25.8962C17.9025 24.8053 17.5034 23.5146 17.5032 22.1931V22.134C17.5056 21.9646 17.5129 21.7954 17.5251 21.6264C17.5448 21.2982 17.5841 20.8388 17.6607 20.2743C17.8139 19.1518 18.1136 17.605 18.7197 15.8677C19.9274 12.3889 22.3736 8.08954 27.2833 5.02203C27.527 4.86974 27.7983 4.76694 28.0816 4.71949C28.365 4.67204 28.655 4.68088 28.9349 4.74548C29.2149 4.81009 29.4794 4.92921 29.7134 5.09604C29.9473 5.26287 30.1461 5.47414 30.2983 5.7178Z" fill="#ED6E4D"/>
</svg>
